<?xml version="1.0" standalone="no"?>
<!DOCTYPE svg PUBLIC "-//W3C//DTD SVG 20010904//EN"
 "http://www.w3.org/TR/2001/REC-SVG-20010904/DTD/svg10.dtd">
<svg version="1.0" xmlns="http://www.w3.org/2000/svg"
 width="300.000000pt" height="200.000000pt" viewBox="0 0 500.000000 500.000000"
 preserveAspectRatio="xMidYMid meet">

<g transform="translate(0.000000,500.000000) scale(0.100000,-0.100000)"
fill="#000000" stroke="none">
<path d="M1100 2971 c-21 -57 -25 -61 -70 -76 l-48 -16 -51 31 c-56 35 -52 35
-121 -23 l-33 -29 16 -46 c22 -61 21 -79 -7 -122 -20 -30 -31 -36 -82 -45
l-59 -10 -11 -63 -11 -63 52 -33 c50 -32 52 -36 58 -87 6 -49 5 -54 -28 -91
-19 -21 -35 -44 -34 -51 0 -6 13 -32 28 -57 l28 -45 62 4 c57 3 65 1 92 -25
16 -15 31 -26 33 -23 2 2 6 28 7 56 2 42 -1 57 -18 75 -11 13 -34 48 -49 78
-26 50 -29 65 -29 155 1 93 3 105 32 160 83 161 261 238 431 186 39 -12 74
-26 77 -31 9 -15 25 -12 25 5 0 8 -7 33 -17 56 -11 30 -25 45 -49 55 -27 11
-36 24 -51 71 l-20 58 -66 3 -66 3 -21 -60z"/>
<path d="M1392 2874 c42 -76 50 -172 20 -230 -30 -58 -88 -106 -187 -155 -103
-50 -189 -125 -230 -201 -24 -43 -30 -68 -33 -138 -3 -65 -10 -97 -30 -135
-13 -27 -28 -62 -33 -78 -7 -24 -5 -29 17 -37 39 -15 41 -13 46 44 10 115 104
245 224 306 28 15 44 30 44 42 0 20 67 88 87 88 6 0 13 -5 15 -11 2 -7 12 -7
32 1 16 6 32 8 35 4 6 -5 -22 -30 -42 -37 -5 -1 -7 -13 -3 -25 8 -23 14 -23
64 -5 23 9 12 -17 -12 -29 -14 -6 -26 -20 -28 -30 -2 -16 -12 -21 -48 -24 -25
-2 -57 1 -72 7 -24 10 -34 7 -77 -21 -55 -35 -112 -93 -135 -138 -15 -29 -15
-30 16 -36 17 -3 69 -6 115 -6 144 0 275 56 358 152 127 147 152 358 61 513
-39 65 -96 129 -164 184 -35 28 -65 51 -67 51 -2 0 11 -25 27 -56z"/>
<path d="M1870 2490 l0 -320 110 0 110 0 0 40 0 40 -70 0 -70 0 0 40 c0 38 2
40 30 40 28 0 30 2 30 40 0 38 -2 40 -30 40 l-30 0 0 160 0 160 70 0 70 0 0
40 0 40 -110 0 -110 0 0 -320z"/>
<path d="M2426 2733 c7 -43 24 -143 38 -223 15 -80 34 -189 43 -242 l16 -98
39 0 c21 0 38 4 38 9 0 5 12 72 26 148 14 76 36 203 49 283 14 80 27 157 31
173 5 26 4 27 -35 27 -45 0 -46 -1 -60 -100 -22 -149 -44 -270 -50 -264 -3 3
-19 85 -36 182 l-30 177 -41 3 -41 3 13 -78z"/>
<path d="M2974 2791 c-91 -31 -168 -111 -202 -210 -34 -97 -1 -228 76 -309 74
-78 119 -97 232 -97 111 0 162 19 230 88 76 76 106 172 88 282 -30 193 -235
311 -424 246z m187 -73 c46 -13 113 -68 134 -109 8 -15 20 -51 26 -78 21 -101
-37 -213 -137 -262 -38 -18 -58 -21 -119 -17 -64 4 -80 9 -121 39 -32 23 -58
54 -76 88 -100 191 83 402 293 339z"/>
<path d="M3460 2490 l0 -320 111 0 110 0 -3 38 -3 37 -72 3 -73 3 0 279 0 280
-35 0 -35 0 0 -320z"/>
<path d="M3640 2798 c0 -6 9 -61 20 -122 11 -61 34 -190 50 -286 17 -96 33
-185 36 -198 4 -20 10 -23 41 -20 l37 3 18 100 c30 167 88 509 88 523 0 7 -15
12 -40 12 -25 0 -40 -5 -40 -12 -1 -26 -60 -351 -65 -356 -3 -3 -5 -1 -5 4 0
5 -13 86 -30 179 -16 94 -30 173 -30 178 0 4 -18 7 -40 7 -24 0 -40 -5 -40
-12z"/>
<path d="M3987 2803 c-4 -3 -7 -147 -7 -320 l0 -313 116 0 115 0 -3 38 -3 37
-73 3 -73 3 3 37 c3 34 6 37 36 40 32 3 33 5 30 40 -3 34 -6 37 -35 40 l-33 3
0 160 0 159 75 0 75 0 0 40 0 40 -108 0 c-60 0 -112 -3 -115 -7z"/>
<path d="M2140 2490 l0 -41 113 3 112 3 0 35 0 35 -112 3 -113 3 0 -41z"/>
</g>
</svg>
